<svg width="14" height="15" viewBox="0 0 14 15" fill="none" xmlns="http://www.w3.org/2000/svg">
<path d="M6.91091 1.94721C8.71962 1.94721 8.93382 1.95398 9.64833 1.98656C10.0779 1.99182 10.5035 2.0707 10.9064 2.21979C11.1986 2.33248 11.464 2.50511 11.6854 2.72656C11.9069 2.94802 12.0795 3.21339 12.1922 3.50559C12.3413 3.90853 12.4202 4.33406 12.4254 4.76366C12.4577 5.47817 12.4648 5.69237 12.4648 7.50108C12.4648 9.30979 12.458 9.52398 12.4254 10.2385C12.4202 10.6681 12.3413 11.0936 12.1922 11.4966C12.0795 11.7888 11.9069 12.0541 11.6854 12.2756C11.464 12.497 11.1986 12.6697 10.9064 12.7824C10.5035 12.9315 10.0779 13.0103 9.64833 13.0156C8.93414 13.0479 8.71994 13.0549 6.91091 13.0549C5.10188 13.0549 4.88769 13.0482 4.17349 13.0156C3.74389 13.0103 3.31837 12.9315 2.91543 12.7824C2.62322 12.6697 2.35785 12.497 2.1364 12.2756C1.91494 12.0541 1.74231 11.7888 1.62962 11.4966C1.48054 11.0936 1.40165 10.6681 1.3964 10.2385C1.36414 9.52398 1.35704 9.30979 1.35704 7.50108C1.35704 5.69237 1.36382 5.47817 1.3964 4.76366C1.40165 4.33406 1.48054 3.90853 1.62962 3.50559C1.74231 3.21339 1.91494 2.94802 2.1364 2.72656C2.35785 2.50511 2.62322 2.33248 2.91543 2.21979C3.31837 2.0707 3.74389 1.99182 4.17349 1.98656C4.88801 1.9543 5.1022 1.94721 6.91091 1.94721ZM6.91091 0.726562C5.0722 0.726562 4.84059 0.734304 4.11801 0.767208C3.55577 0.778391 2.99949 0.884847 2.47285 1.08205C2.02107 1.25226 1.61188 1.519 1.27382 1.86366C0.928848 2.20184 0.661878 2.61127 0.491557 3.06334C0.294358 3.58998 0.187902 4.14625 0.176719 4.7085C0.144461 5.43043 0.136719 5.66205 0.136719 7.50076C0.136719 9.33946 0.144461 9.57108 0.177364 10.2937C0.188547 10.8559 0.295003 11.4122 0.492203 11.9388C0.662334 12.3908 0.929081 12.8002 1.27382 13.1385C1.61206 13.4832 2.02149 13.75 2.47349 13.9201C3.00014 14.1173 3.55641 14.2238 4.11865 14.2349C4.84124 14.2672 5.07188 14.2756 6.91156 14.2756C8.75124 14.2756 8.98188 14.2679 9.70446 14.2349C10.2667 14.2238 10.823 14.1173 11.3496 13.9201C11.7995 13.7457 12.208 13.4794 12.5491 13.1381C12.8901 12.7968 13.1562 12.3882 13.3303 11.9382C13.5275 11.4115 13.6339 10.8553 13.6451 10.293C13.6774 9.57108 13.6851 9.33946 13.6851 7.50076C13.6851 5.66205 13.6774 5.43043 13.6445 4.70785C13.6333 4.14561 13.5268 3.58934 13.3296 3.06269C13.1595 2.61068 12.8927 2.20126 12.548 1.86301C12.2098 1.51828 11.8003 1.25153 11.3483 1.0814C10.8217 0.884201 10.2654 0.777746 9.70317 0.766563C8.98123 0.734304 8.74962 0.726562 6.91091 0.726562Z" fill="#333333"/>
<path d="M6.9123 4.02344C6.22428 4.02344 5.55171 4.22746 4.97964 4.60971C4.40757 4.99195 3.96169 5.53525 3.6984 6.1709C3.4351 6.80655 3.36621 7.50601 3.50044 8.18081C3.63466 8.85561 3.96598 9.47546 4.45249 9.96197C4.93899 10.4485 5.55884 10.7798 6.23364 10.914C6.90845 11.0482 7.6079 10.9794 8.24355 10.7161C8.8792 10.4528 9.4225 10.0069 9.80475 9.43481C10.187 8.86274 10.391 8.19017 10.391 7.50215C10.391 6.57954 10.0245 5.69471 9.37212 5.04233C8.71974 4.38994 7.83492 4.02344 6.9123 4.02344ZM6.9123 9.76021C6.4657 9.76021 6.02913 9.62778 5.65779 9.37966C5.28645 9.13154 4.99703 8.77888 4.82613 8.36627C4.65522 7.95366 4.6105 7.49964 4.69763 7.06162C4.78476 6.6236 4.99982 6.22125 5.31561 5.90545C5.63141 5.58966 6.03376 5.3746 6.47178 5.28747C6.9098 5.20034 7.36382 5.24506 7.77643 5.41597C8.18904 5.58687 8.5417 5.8763 8.78982 6.24763C9.03794 6.61897 9.17037 7.05554 9.17037 7.50215C9.17037 8.10102 8.93247 8.67537 8.509 9.09884C8.08553 9.52231 7.51118 9.76021 6.9123 9.76021Z" fill="#333333"/>
<path d="M10.5277 4.69612C10.9767 4.69612 11.3407 4.33217 11.3407 3.88322C11.3407 3.43426 10.9767 3.07031 10.5277 3.07031C10.0788 3.07031 9.71484 3.43426 9.71484 3.88322C9.71484 4.33217 10.0788 4.69612 10.5277 4.69612Z" fill="#333333"/>
</svg>
