<svg width="13" height="13" viewBox="0 0 13 13" fill="none" xmlns="http://www.w3.org/2000/svg">
<path d="M10.851 0.851562C11.2037 0.851563 11.542 0.991327 11.7914 1.24011C12.0409 1.48889 12.181 1.82631 12.181 2.17814V11.4642C12.181 11.816 12.0409 12.1534 11.7914 12.4022C11.542 12.651 11.2037 12.7908 10.851 12.7908H1.54094C1.1882 12.7908 0.849912 12.651 0.600487 12.4022C0.351063 12.1534 0.210938 11.816 0.210938 11.4642V2.17814C0.210938 1.82631 0.351063 1.48889 0.600487 1.24011C0.849912 0.991327 1.1882 0.851563 1.54094 0.851562H10.851ZM10.5185 11.1325V7.61711C10.5185 7.04363 10.2901 6.49363 9.88352 6.08812C9.47696 5.68261 8.92555 5.45479 8.35058 5.45479C7.78533 5.45479 7.12697 5.7997 6.80777 6.31707V5.58082H4.95241V11.1325H6.80777V7.86253C6.80777 7.3518 7.22007 6.93393 7.73213 6.93393C7.97904 6.93393 8.21585 7.03176 8.39045 7.20591C8.56504 7.38006 8.66313 7.61625 8.66313 7.86253V11.1325H10.5185ZM2.79115 4.53945C3.08745 4.53945 3.37162 4.42205 3.58114 4.21307C3.79065 4.0041 3.90836 3.72066 3.90836 3.42513C3.90836 2.80827 3.4096 2.30417 2.79115 2.30417C2.49309 2.30417 2.20723 2.42227 1.99646 2.63249C1.7857 2.84271 1.6673 3.12783 1.6673 3.42513C1.6673 4.04198 2.1727 4.53945 2.79115 4.53945ZM3.71551 11.1325V5.58082H1.87345V11.1325H3.71551Z" fill="#333333"/>
</svg>
