<svg width="13" height="10" viewBox="0 0 13 10" fill="none" xmlns="http://www.w3.org/2000/svg">
<path d="M12.1192 1.48506C11.7002 1.67129 11.2579 1.78768 10.7923 1.85752C11.2579 1.57817 11.6304 1.13587 11.7933 0.600453C11.351 0.856522 10.8622 1.04275 10.3268 1.15915C9.90773 0.716848 9.30248 0.4375 8.65067 0.4375C7.3936 0.4375 6.36932 1.46178 6.36932 2.71884C6.36932 2.90508 6.3926 3.06803 6.43916 3.23098C4.55356 3.13787 2.85419 2.22998 1.71352 0.833243C1.52729 1.18243 1.41089 1.55489 1.41089 1.97391C1.41089 2.7654 1.80664 3.46377 2.43517 3.88279C2.06271 3.85952 1.71352 3.7664 1.38761 3.60345V3.62672C1.38761 4.74412 2.1791 5.67528 3.22666 5.88479C3.04042 5.93135 2.83091 5.95463 2.6214 5.95463C2.48173 5.95463 2.31877 5.93135 2.1791 5.90807C2.48173 6.81595 3.31977 7.49104 4.32077 7.49104C3.52928 8.0963 2.55156 8.46876 1.48073 8.46876C1.2945 8.46876 1.10827 8.46876 0.945312 8.44548C1.96959 9.09729 3.15682 9.46976 4.46044 9.46976C8.67394 9.46976 10.9786 5.97791 10.9786 2.95163C10.9786 2.85852 10.9786 2.74212 10.9786 2.64901C11.4209 2.34638 11.8166 1.95064 12.1192 1.48506Z" fill="#333333"/>
</svg>
